<svg width="98" height="26" viewBox="0 0 98 26" fill="none" xmlns="http://www.w3.org/2000/svg">
<path d="M14.175 1.45V4.875H9.525V19H5.25V4.875H0.6V1.45H14.175ZM20.5955 7.025C20.9955 6.375 21.5705 5.85 22.3205 5.45C23.0705 5.05 23.9288 4.85 24.8955 4.85C26.0455 4.85 27.0872 5.14167 28.0205 5.725C28.9538 6.30833 29.6872 7.14167 30.2205 8.225C30.7705 9.30833 31.0455 10.5667 31.0455 12C31.0455 13.4333 30.7705 14.7 30.2205 15.8C29.6872 16.8833 28.9538 17.725 28.0205 18.325C27.0872 18.9083 26.0455 19.2 24.8955 19.2C23.9122 19.2 23.0538 19.0083 22.3205 18.625C21.5872 18.225 21.0122 17.7 20.5955 17.05V19H16.3205V0.5H20.5955V7.025ZM26.6955 12C26.6955 10.9333 26.3955 10.1 25.7955 9.5C25.2122 8.88333 24.4872 8.575 23.6205 8.575C22.7705 8.575 22.0455 8.88333 21.4455 9.5C20.8622 10.1167 20.5705 10.9583 20.5705 12.025C20.5705 13.0917 20.8622 13.9333 21.4455 14.55C22.0455 15.1667 22.7705 15.475 23.6205 15.475C24.4705 15.475 25.1955 15.1667 25.7955 14.55C26.3955 13.9167 26.6955 13.0667 26.6955 12ZM47.0633 5.05V19H42.7883V17.1C42.3549 17.7167 41.7633 18.2167 41.0133 18.6C40.2799 18.9667 39.4633 19.15 38.5633 19.15C37.4966 19.15 36.5549 18.9167 35.7383 18.45C34.9216 17.9667 34.2883 17.275 33.8383 16.375C33.3883 15.475 33.1633 14.4167 33.1633 13.2V5.05H37.4133V12.625C37.4133 13.5583 37.6549 14.2833 38.1383 14.8C38.6216 15.3167 39.2716 15.575 40.0883 15.575C40.9216 15.575 41.5799 15.3167 42.0633 14.8C42.5466 14.2833 42.7883 13.5583 42.7883 12.625V5.05H47.0633ZM60.759 10C61.7757 10.2167 62.5923 10.725 63.209 11.525C63.8257 12.3083 64.134 13.2083 64.134 14.225C64.134 15.6917 63.6173 16.8583 62.584 17.725C61.5673 18.575 60.1423 19 58.309 19H50.134V1.45H58.034C59.8173 1.45 61.209 1.85833 62.209 2.675C63.2257 3.49167 63.734 4.6 63.734 6C63.734 7.03333 63.459 7.89167 62.909 8.575C62.3757 9.25833 61.659 9.73333 60.759 10ZM54.409 8.55H57.209C57.909 8.55 58.4423 8.4 58.809 8.1C59.1923 7.78333 59.384 7.325 59.384 6.725C59.384 6.125 59.1923 5.66667 58.809 5.35C58.4423 5.03333 57.909 4.875 57.209 4.875H54.409V8.55ZM57.559 15.55C58.2757 15.55 58.8257 15.3917 59.209 15.075C59.609 14.7417 59.809 14.2667 59.809 13.65C59.809 13.0333 59.6007 12.55 59.184 12.2C58.784 11.85 58.2257 11.675 57.509 11.675H54.409V15.55H57.559ZM65.7635 12C65.7635 10.5667 66.0301 9.30833 66.5635 8.225C67.1135 7.14167 67.8551 6.30833 68.7885 5.725C69.7218 5.14167 70.7635 4.85 71.9135 4.85C72.8301 4.85 73.6635 5.04167 74.4135 5.425C75.1801 5.80833 75.7801 6.325 76.2135 6.975V0.5H80.4885V19H76.2135V17C75.8135 17.6667 75.2385 18.2 74.4885 18.6C73.7551 19 72.8968 19.2 71.9135 19.2C70.7635 19.2 69.7218 18.9083 68.7885 18.325C67.8551 17.725 67.1135 16.8833 66.5635 15.8C66.0301 14.7 65.7635 13.4333 65.7635 12ZM76.2135 12.025C76.2135 10.9583 75.9135 10.1167 75.3135 9.5C74.7301 8.88333 74.0135 8.575 73.1635 8.575C72.3135 8.575 71.5885 8.88333 70.9885 9.5C70.4051 10.1 70.1135 10.9333 70.1135 12C70.1135 13.0667 70.4051 13.9167 70.9885 14.55C71.5885 15.1667 72.3135 15.475 73.1635 15.475C74.0135 15.475 74.7301 15.1667 75.3135 14.55C75.9135 13.9333 76.2135 13.0917 76.2135 12.025ZM88.8813 4.85C89.8646 4.85 90.7229 5.05 91.4563 5.45C92.2063 5.85 92.7813 6.375 93.1813 7.025V5.05H97.4563V18.975C97.4563 20.2583 97.1979 21.4167 96.6813 22.45C96.1813 23.5 95.4063 24.3333 94.3563 24.95C93.3229 25.5667 92.0313 25.875 90.4813 25.875C88.4146 25.875 86.7396 25.3833 85.4563 24.4C84.1729 23.4333 83.4396 22.1167 83.2563 20.45H87.4813C87.6146 20.9833 87.9313 21.4 88.4313 21.7C88.9313 22.0167 89.5479 22.175 90.2813 22.175C91.1646 22.175 91.8646 21.9167 92.3813 21.4C92.9146 20.9 93.1813 20.0917 93.1813 18.975V17C92.7646 17.65 92.1896 18.1833 91.4563 18.6C90.7229 19 89.8646 19.2 88.8813 19.2C87.7313 19.2 86.6896 18.9083 85.7563 18.325C84.8229 17.725 84.0813 16.8833 83.5313 15.8C82.9979 14.7 82.7313 13.4333 82.7313 12C82.7313 10.5667 82.9979 9.30833 83.5313 8.225C84.0813 7.14167 84.8229 6.30833 85.7563 5.725C86.6896 5.14167 87.7313 4.85 88.8813 4.85ZM93.1813 12.025C93.1813 10.9583 92.8813 10.1167 92.2813 9.5C91.6979 8.88333 90.9813 8.575 90.1313 8.575C89.2813 8.575 88.5563 8.88333 87.9563 9.5C87.3729 10.1 87.0813 10.9333 87.0813 12C87.0813 13.0667 87.3729 13.9167 87.9563 14.55C88.5563 15.1667 89.2813 15.475 90.1313 15.475C90.9813 15.475 91.6979 15.1667 92.2813 14.55C92.8813 13.9333 93.1813 13.0917 93.1813 12.025Z" fill="white"/>
</svg>
